Coordinates
version=1
nRows=10
nColumns=28
inDegrees=yes

Units are S.I. units (second, meters, Newtons, ...)
Angles are in degrees.

endheader
time	pelvis_tilt	pelvis_list	pelvis_rotation	pelvis_tx	pelvis_ty	pelvis_tz	hip_flexion_r	hip_adduction_r	hip_rotation_r	knee_angle_r	ankle_angle_r	subtalar_angle_r	mtp_angle_r	hip_flexion_l	hip_adduction_l	hip_rotation_l	knee_angle_l	socket_flexion	socket_adduction	socket_rotation	socket_tx	socket_ty	socket_tz	foot_flex	lumbar_extension	lumbar_bending	lumbar_rotation
      0.00000000	     -2.96563357	     -2.76864034	      1.19710272	     -0.81431639	      0.96808482	      0.29280673	    -19.46737248	      4.30431505	      4.77292826	     -6.29125039	     -5.91187615	    -24.21443408	     11.07004041	     27.06355690	     -2.00869455	      6.79814001	     -7.04956537	     -4.40374597	      0.00000000	      0.00000000	      0.00000000	     -0.00266129	      0.00000000	     -1.44027362	     -5.93468911	      1.59812506	      2.01626177
      0.00416667	     -2.99072122	     -2.72657773	      1.11228210	     -0.80863709	      0.96684497	      0.29228263	    -19.63564502	      4.21491590	      4.79097232	     -6.53658083	     -5.98481473	    -24.20236401	     11.10763467	     27.01863797	     -1.99591976	      6.87081648	     -7.26781395	     -4.27233786	      0.00000000	      0.00000000	      0.00000000	     -0.00301871	      0.00000000	     -1.91146732	     -5.84220912	      1.51234277	      2.05095559
      0.00833333	     -3.00682607	     -2.66714305	      1.02902758	     -0.80267976	      0.96559623	      0.29170930	    -19.80867565	      4.10413625	      4.77336896	     -6.81404338	     -6.08787113	    -24.19061330	     11.15322041	     26.96384664	     -1.95942578	      6.90068740	     -7.53156620	     -4.17260601	      0.00000000	      0.00000000	      0.00000000	     -0.00339004	      0.00000000	     -2.41866425	     -5.74920218	      1.40232657	      2.09993778
      0.01250000	     -3.01679312	     -2.58397782	      0.93393313	     -0.79652954	      0.96434038	      0.29112546	    -19.97830439	      3.95991679	      4.71609158	     -7.11995700	     -6.22891432	    -24.17634001	     11.22263992	     26.90645565	     -1.90189857	      6.89241685	     -7.85363748	     -4.11410685	      0.00000000	      0.00000000	      0.00000000	     -0.00378632	      0.00000000	     -2.97459846	     -5.66663351	      1.25884418	      2.17264726
      0.01666667	     -3.01944957	     -2.46892678	      0.82943241	     -0.79016037	      0.96312001	      0.29056699	    -20.14182648	      3.77795653	      4.60622154	     -7.45993012	     -6.40930857	    -24.16094162	     11.33645491	     26.84250824	     -1.81565283	      6.84054109	     -8.24939910	     -4.10800592	      0.00000000	      0.00000000	      0.00000000	     -0.00415369	      0.00000000	     -3.54170228	     -5.58494074	      1.07125743	      2.27456964
      0.02083333	     -3.02881793	     -2.35775124	      0.76418911	     -0.78377163	      0.96186528	      0.28990638	    -20.29085464	      3.61188464	      4.54015608	     -7.82548434	     -6.59397580	    -24.13328644	     11.45110957	     26.80184189	     -1.70827038	      6.81663967	     -8.62826812	     -4.04262287	      0.00000000	      0.00000000	      0.00000000	     -0.00454660	      0.00000000	     -4.12989080	     -5.52069622	      0.88795285	      2.35533917
      0.02500000	     -3.00529803	     -2.09372354	      0.68064429	     -0.77711661	      0.96071375	      0.28926867	    -20.42670947	      3.25611974	      4.16076062	     -8.26837553	     -6.96712069	    -24.04271523	     12.13450822	     26.80724552	     -1.43973555	      6.56879259	     -9.47620065	     -4.35922554	      0.00000000	      0.00000000	      0.00000000	     -0.00474424	      0.00000000	     -4.65368727	     -5.45180304	      0.49109575	      2.65609247
      0.02916667	     -3.03152194	     -2.05643492	      0.70285004	     -0.77057298	      0.95944698	      0.28836983	    -20.56907294	      3.20465189	      4.20585486	     -8.61781695	     -7.09383542	    -24.00346992	     12.22328878	     26.77516537	     -1.35708833	      6.61185436	     -9.72552153	     -4.12956194	      0.00000000	      0.00000000	      0.00000000	     -0.00528393	      0.00000000	     -5.21130830	     -5.36157638	      0.41346216	      2.65297593
      0.03333333	     -3.21564280	     -1.88613463	      0.75398442	     -0.76390285	      0.95789134	      0.28740191	    -20.31964435	      2.91300419	      3.27259127	     -9.29808026	     -7.57481255	    -23.57744529	     16.81692214	     27.09143841	     -1.09819166	      6.60923995	    -10.71380875	     -4.48129344	      0.00000000	      0.00000000	      0.00000000	     -0.00562661	      0.00000000	     -5.88224295	     -5.07377718	      0.16661284	      2.56446213
      0.03750000	     -3.23262007	     -1.80256706	      0.76879931	     -0.75729194	      0.95678727	      0.28654349	    -20.41033104	      2.81454821	      3.31329544	     -9.73879971	     -7.78675323	    -23.54919951	     16.82327028	     27.02743287	     -0.97640779	      6.63767981	    -10.94336628	     -4.22383519	      0.00000000	      0.00000000	      0.00000000	     -0.00616662	      0.00000000	     -6.41829059	     -5.01339246	      0.02729269	      2.55474930
